<?xml version="1.0" encoding="UTF-8"?>
<svg id="Calque_1" data-name="Calque 1" xmlns="http://www.w3.org/2000/svg" viewBox="0 0 500 500">
  <defs>
    <style>
      .cls-1 {
        font-family: Garamond, Garamond;
        font-size: 88.63px;
      }

      .cls-1, .cls-2 {
        fill: #fff;
      }

      .cls-2, .cls-3 {
        stroke-width: 0px;
      }

      .cls-3 {
        fill: #181933;
      }
    </style>
  </defs>
  <rect class="cls-3" x="-19.35" y="-8.4" width="538.7" height="516.8"/>
  <g>
    <path class="cls-2" d="m89.56,170.46h11.23l4.49,85.37s25.46,7.77,44.93-3.98l4.49,11.98s-24.22,17.05-65.15,3.02v-96.39Z"/>
    <path class="cls-2" d="m131,183.09h15.12s2.22,44.88-7.56,55.4c-1.39,1.5-16.42,0-16.42,0,0,0,15.64-43.17,8.86-55.4Z"/>
    <path class="cls-2" d="m395.21,211.14c-12.72-10.23-43.37-11.21-43.37-11.21l.49,13.16c51.17,3.9,39.42,26.8,39.42,26.8,0,0-25.77-33.14-40.88-7.8-19.37,32.49,35.09,31.03,35.09,31.03l-4.39,5.52,7.8,9.75s9.26-4.39,17.54-20.95c8.28-16.57,1.03-36.06-11.7-46.29Zm-33.87,30.7c6.34-18.52,27.29,7.31,27.29,7.31-6.34,8.28-31.58,5.24-27.29-7.31Z"/>
    <path class="cls-2" d="m316.04,146.97s-16.57,71.95,11.32,96.31l9.62-4.86s-12.14-48.69,27.15-62.7l4.71,8.46,9.77-1.82c.83-3.7-3.57-23.66-3.57-23.66,0,0-31.98,3.8-43.9,25.88-5.89,10.92-7.21,25.05-7.21,25.05,0,0-4.16-3.84,6.09-62.9l-13.97.23Z"/>
    <path class="cls-2" d="m162.26,171.88h16.16v25.84s19.7-21.93,34.41-17.99c21.38,5.74,0,48.49,0,48.49l12.17,2.03v15.12l-26.77-5.68s16.16-39.1,6.78-41.97c-9.38-2.87-28.06,27.65-28.58,37.55l-12.09.25-2.09-63.64Z"/>
    <path class="cls-2" d="m287.72,155.63c2.42,6.59,2.77,10.4,2.77,10.4,0,0-8.46,10.64-14.09,6.56,65.23,47.27-59.21,73.47,2.85,66.33,37.37-9.34,42.57,34.41,9.61,44.09-25.51,13.48-60.33-7.87-24.15-29.81-21.47,1.78-23.25-17.27-8.66-27.1-29.3-1.1-31.6-47.1-5.79-55.71,0,0,37.46-14.77,37.46-14.77Zm-1.86,116.52c38.48-21.45-23.8-29.58-23.2-1.05,4.36,7.53,14.63,4.04,23.2,1.05Zm-19.44-58.41c17.57-6.63,7.33-39.64-11.24-32.24-17.07,7.05-7.78,39.66,11.24,32.24Z"/>
    <circle class="cls-2" cx="139.12" cy="161.28" r="9.92"/>
  </g>
  <text class="cls-1" transform="translate(158.62 332.69)"><tspan x="0" y="0">Sfero</tspan></text>
</svg>